<svg xmlns="http://www.w3.org/2000/svg" xmlns:xlink="http://www.w3.org/1999/xlink" width="500" zoomAndPan="magnify" viewBox="0 0 375 374.999991" height="500" preserveAspectRatio="xMidYMid meet" version="1.2"><defs><clipPath id="f3b0a6b0ef"><path d="M 239 109 L 316.71875 109 L 316.71875 136 L 239 136 Z M 239 109 "/></clipPath><clipPath id="23c7ac13b9"><path d="M 249 129 L 316.71875 129 L 316.71875 246 L 249 246 Z M 249 129 "/></clipPath><clipPath id="cbb4c941c1"><path d="M 76 4.359375 L 152 4.359375 L 152 58 L 76 58 Z M 76 4.359375 "/></clipPath><clipPath id="9e09e4d078"><path d="M 58 4.359375 L 117 4.359375 L 117 134 L 58 134 Z M 58 4.359375 "/></clipPath></defs><g id="9ce7d8c80f"><path style=" stroke:none;fill-rule:nonzero;fill:#f2d94e;fill-opacity:1;" d="M 191.792969 298.988281 C 190.980469 299.839844 190.082031 300.589844 189.101562 301.242188 C 186.230469 303.066406 183.117188 304.257812 179.765625 304.8125 C 178.308594 305.015625 176.84375 305.125 175.371094 305.148438 C 173.898438 305.171875 172.433594 305.101562 170.96875 304.945312 C 169.503906 304.789062 168.058594 304.542969 166.625 304.207031 C 165.191406 303.875 163.78125 303.453125 162.402344 302.949219 C 161.019531 302.441406 159.671875 301.855469 158.363281 301.183594 C 157.050781 300.511719 155.789062 299.765625 154.570312 298.941406 C 153.351562 298.117188 152.1875 297.21875 151.078125 296.253906 C 149.96875 295.285156 148.921875 294.253906 147.9375 293.160156 C 143.355469 288.226562 139.992188 282.566406 137.851562 276.183594 C 136.496094 272.105469 135.597656 267.925781 135.15625 263.652344 C 134.78125 259.476562 134.78125 255.296875 135.15625 251.121094 C 135.15625 251.121094 138.980469 254.753906 143.992188 260.519531 C 149.003906 266.285156 155.269531 273.925781 161.53125 280.566406 C 167.316406 286.839844 174.042969 291.851562 181.707031 295.605469 C 184.054688 296.699219 186.480469 297.597656 188.972656 298.296875 Z M 191.792969 298.988281 "/><path style=" stroke:none;fill-rule:nonzero;fill:#f2d94e;fill-opacity:1;" d="M 120.621094 341.964844 C 119.230469 344.097656 117.371094 345.683594 115.046875 346.726562 C 109.15625 349.375 102.996094 350.984375 96.5625 351.550781 C 94.683594 351.550781 93.429688 351.992188 92.054688 351.992188 L 89.984375 351.992188 C 89.546875 351.96875 89.109375 351.96875 88.667969 351.992188 C 88.40625 352.066406 88.144531 352.066406 87.882812 351.984375 C 87.621094 351.90625 87.402344 351.761719 87.230469 351.550781 C 86.992188 351.09375 86.992188 350.632812 87.230469 350.171875 C 87.230469 349.859375 87.230469 349.859375 87.605469 349.234375 C 88.113281 348.574219 88.65625 347.949219 89.234375 347.355469 C 91.847656 344.75 94.710938 342.453125 97.816406 340.460938 C 103.265625 337.003906 109.136719 334.539062 115.421875 333.070312 C 117.980469 332.445312 120.570312 331.984375 123.191406 331.691406 C 123.191406 332.570312 123.191406 333.445312 123.191406 334.386719 C 122.90625 337.105469 122.046875 339.632812 120.621094 341.964844 Z M 120.621094 341.964844 "/><path style=" stroke:none;fill-rule:nonzero;fill:#f2d94e;fill-opacity:1;" d="M 140.167969 338.394531 C 140.546875 333.945312 140.167969 330.375 140.167969 326.992188 C 140.167969 323.609375 140.167969 320.164062 140.167969 316.84375 C 140.167969 303.75 139.167969 291.78125 138.351562 282.320312 C 138.351562 280.253906 138.039062 278.3125 137.851562 276.058594 C 136.535156 261.398438 135.28125 252.3125 134.96875 250.996094 C 132.597656 260.109375 130.695312 269.320312 129.269531 278.625 C 127.765625 287.773438 126.136719 299.113281 124.757812 312.582031 C 124.316406 317.40625 123.816406 322.417969 123.316406 327.746094 C 120.640625 327.238281 117.949219 326.882812 115.234375 326.679688 C 112.1875 326.585938 109.152344 326.734375 106.132812 327.132812 C 103.113281 327.53125 100.140625 328.167969 97.222656 329.046875 C 94.304688 329.925781 91.476562 331.03125 88.738281 332.371094 C 86 333.707031 83.386719 335.257812 80.902344 337.015625 C 79.726562 337.855469 78.601562 338.753906 77.519531 339.710938 C 76.097656 341.015625 74.867188 342.476562 73.820312 344.097656 C 72.683594 345.820312 71.902344 347.695312 71.480469 349.71875 C 71.058594 351.746094 71.023438 353.773438 71.378906 355.8125 C 71.742188 357.332031 72.308594 358.773438 73.074219 360.136719 C 73.839844 361.5 74.773438 362.734375 75.878906 363.839844 C 76.984375 364.945312 78.21875 365.882812 79.582031 366.644531 C 80.945312 367.410156 82.386719 367.976562 83.90625 368.34375 C 85.726562 368.84375 86.789062 368.96875 87.917969 369.21875 L 91.425781 369.21875 C 93.515625 369.347656 95.601562 369.347656 97.691406 369.21875 C 106.664062 369.046875 115.226562 367.085938 123.378906 363.332031 C 125.777344 362.097656 127.984375 360.582031 130 358.789062 C 132.015625 356.996094 133.777344 354.980469 135.28125 352.742188 C 138.121094 348.371094 139.75 343.589844 140.167969 338.394531 Z M 115.109375 346.726562 C 109.21875 349.375 103.058594 350.984375 96.625 351.550781 C 94.746094 351.550781 93.492188 351.992188 92.117188 351.992188 L 89.984375 351.992188 C 89.546875 351.96875 89.109375 351.96875 88.667969 351.992188 C 88.40625 352.066406 88.144531 352.066406 87.882812 351.984375 C 87.621094 351.90625 87.402344 351.761719 87.230469 351.550781 C 86.992188 351.09375 86.992188 350.632812 87.230469 350.171875 C 87.230469 349.859375 87.230469 349.859375 87.605469 349.234375 C 88.113281 348.574219 88.65625 347.949219 89.234375 347.355469 C 91.847656 344.75 94.710938 342.453125 97.816406 340.460938 C 103.265625 337.003906 109.136719 334.539062 115.421875 333.070312 C 117.980469 332.445312 120.570312 331.984375 123.191406 331.691406 C 123.191406 332.570312 123.191406 333.445312 123.191406 334.386719 C 122.90625 337.105469 122.046875 339.632812 120.621094 341.964844 C 119.191406 344.117188 117.292969 345.707031 114.921875 346.726562 Z M 115.109375 346.726562 "/><g clip-rule="nonzero" clip-path="url(#f3b0a6b0ef)"><path style=" stroke:none;fill-rule:nonzero;fill:#f2d94e;fill-opacity:1;" d="M 316.59375 129.078125 L 313.523438 127.949219 L 305.191406 125.128906 C 298.238281 122.9375 289.027344 119.992188 278.503906 117.359375 C 267.976562 114.730469 258.453125 112.976562 251.3125 111.472656 L 242.667969 110.03125 L 239.660156 109.78125 C 239.660156 109.78125 240.160156 110.65625 241.289062 112.222656 C 242.960938 114.496094 244.839844 116.585938 246.925781 118.488281 C 250.859375 122.105469 255.183594 125.179688 259.894531 127.703125 C 264.601562 130.226562 269.554688 132.125 274.742188 133.398438 C 279.6875 134.585938 284.699219 135.179688 289.78125 135.179688 C 294.863281 135.179688 299.875 134.585938 304.816406 133.398438 C 307.757812 132.578125 310.621094 131.535156 313.398438 130.265625 Z M 316.59375 129.078125 "/></g><path style=" stroke:none;fill-rule:nonzero;fill:#f2d94e;fill-opacity:1;" d="M 285.394531 217.980469 C 284.40625 220.136719 283.136719 222.109375 281.578125 223.902344 C 280.023438 225.691406 278.246094 227.226562 276.246094 228.503906 C 275.535156 228.996094 274.773438 229.402344 273.964844 229.71875 C 273.160156 230.035156 272.324219 230.257812 271.46875 230.382812 C 270.609375 230.507812 269.746094 230.535156 268.882812 230.460938 C 268.019531 230.386719 267.171875 230.214844 266.347656 229.945312 C 265.65625 229.648438 265.015625 229.269531 264.421875 228.808594 C 263.828125 228.34375 263.304688 227.816406 262.847656 227.214844 C 262.394531 226.617188 262.019531 225.972656 261.734375 225.277344 C 261.445312 224.582031 261.25 223.863281 261.148438 223.117188 C 261.1875 222.378906 261.335938 221.660156 261.585938 220.960938 C 261.835938 220.265625 262.179688 219.621094 262.621094 219.023438 C 263.058594 218.429688 263.574219 217.90625 264.167969 217.464844 C 264.761719 217.019531 265.402344 216.667969 266.097656 216.414062 C 267.550781 215.871094 269.046875 215.476562 270.578125 215.238281 C 272.109375 214.996094 273.652344 214.910156 275.203125 214.980469 C 276.753906 215.050781 278.28125 215.273438 279.785156 215.652344 C 281.289062 216.03125 282.742188 216.554688 284.140625 217.226562 C 284.574219 217.453125 284.992188 217.703125 285.394531 217.980469 Z M 285.394531 217.980469 "/><g clip-rule="nonzero" clip-path="url(#23c7ac13b9)"><path style=" stroke:none;fill-rule:nonzero;fill:#f2d94e;fill-opacity:1;" d="M 315.71875 157.019531 C 316.53125 148.25 316.71875 141.292969 316.71875 136.53125 C 316.71875 131.769531 316.71875 129.078125 316.71875 129.078125 C 316.71875 129.578125 313.398438 137.847656 308.261719 152.882812 C 305.632812 160.589844 302.4375 170.113281 298.675781 181.328125 C 296.796875 186.902344 294.730469 192.917969 292.410156 199.371094 C 290.09375 205.824219 288.714844 210.960938 286.148438 216.097656 L 285.457031 215.535156 C 283.117188 213.566406 280.566406 211.917969 277.8125 210.585938 C 275.789062 209.574219 273.660156 208.886719 271.429688 208.523438 C 269.195312 208.160156 266.960938 208.140625 264.71875 208.457031 C 261.800781 208.855469 259.109375 209.859375 256.636719 211.464844 C 255.175781 212.464844 253.90625 213.675781 252.835938 215.089844 C 251.761719 216.503906 250.941406 218.050781 250.371094 219.734375 C 249.683594 221.636719 249.339844 223.597656 249.339844 225.621094 C 249.339844 227.644531 249.683594 229.609375 250.371094 231.511719 C 251.078125 233.429688 252.023438 235.21875 253.214844 236.875 C 254.40625 238.535156 255.796875 240.003906 257.390625 241.285156 C 259.117188 242.632812 261 243.71875 263.027344 244.542969 C 265.148438 245.351562 267.339844 245.8125 269.605469 245.921875 C 273.976562 246.144531 278.152344 245.351562 282.136719 243.539062 C 284.054688 242.625 285.878906 241.554688 287.613281 240.332031 C 289.347656 239.105469 290.96875 237.746094 292.472656 236.246094 C 293.976562 234.746094 295.34375 233.132812 296.574219 231.402344 C 297.804688 229.671875 298.882812 227.847656 299.804688 225.9375 C 302.867188 219.457031 305.226562 212.734375 306.882812 205.761719 C 308.574219 199.496094 309.890625 193.230469 311.082031 187.59375 C 313.195312 177.488281 314.742188 167.296875 315.71875 157.019531 Z M 285.269531 218.355469 C 284.28125 220.511719 283.011719 222.488281 281.453125 224.277344 C 279.898438 226.066406 278.121094 227.601562 276.121094 228.878906 C 275.410156 229.375 274.648438 229.777344 273.839844 230.09375 C 273.03125 230.414062 272.199219 230.632812 271.339844 230.757812 C 270.484375 230.882812 269.621094 230.910156 268.757812 230.835938 C 267.894531 230.761719 267.046875 230.589844 266.222656 230.320312 C 265.53125 230.023438 264.890625 229.644531 264.296875 229.183594 C 263.703125 228.722656 263.179688 228.191406 262.722656 227.59375 C 262.269531 226.992188 261.894531 226.347656 261.609375 225.652344 C 261.320312 224.957031 261.125 224.238281 261.023438 223.492188 C 261.0625 222.753906 261.207031 222.035156 261.460938 221.339844 C 261.710938 220.640625 262.054688 219.996094 262.496094 219.398438 C 262.933594 218.804688 263.449219 218.285156 264.042969 217.839844 C 264.632812 217.394531 265.277344 217.042969 265.972656 216.789062 C 267.425781 216.246094 268.921875 215.855469 270.453125 215.613281 C 271.984375 215.371094 273.527344 215.285156 275.078125 215.355469 C 276.628906 215.425781 278.15625 215.648438 279.660156 216.027344 C 281.164062 216.40625 282.617188 216.933594 284.015625 217.601562 C 284.488281 217.765625 284.945312 217.953125 285.394531 218.167969 Z M 285.269531 218.355469 "/></g><path style=" stroke:none;fill-rule:nonzero;fill:#f2d94e;fill-opacity:1;" d="M 211.527344 184.460938 C 211.082031 185.503906 210.5625 186.503906 209.960938 187.46875 C 209 189.152344 207.6875 190.492188 206.015625 191.476562 C 203.597656 192.636719 201.050781 193.265625 198.371094 193.355469 C 195.300781 193.671875 191.230469 193.859375 188.410156 193.859375 C 186.378906 194.042969 184.4375 193.707031 182.585938 192.855469 C 182.007812 192.605469 181.507812 192.253906 181.082031 191.789062 C 180.804688 191.613281 180.636719 191.363281 180.578125 191.039062 C 180.371094 190.558594 180.371094 190.078125 180.578125 189.597656 C 181.230469 188.667969 182.042969 187.917969 183.023438 187.34375 C 185.472656 185.855469 188.105469 184.832031 190.917969 184.273438 C 195.992188 183.121094 201.109375 182.890625 206.265625 183.582031 C 208.035156 183.78125 209.789062 184.070312 211.527344 184.460938 Z M 211.527344 184.460938 "/><path style=" stroke:none;fill-rule:nonzero;fill:#f2d94e;fill-opacity:1;" d="M 237.464844 138.347656 C 239.347656 120.871094 239.347656 109.78125 239.347656 109.78125 C 239.347656 109.78125 235.398438 119.242188 229.636719 135.28125 C 226.753906 143.171875 223.371094 152.757812 219.484375 163.535156 L 213.347656 180.386719 L 212.90625 181.578125 C 211.574219 180.726562 210.195312 179.953125 208.773438 179.261719 C 203.253906 176.578125 197.425781 175.160156 191.292969 175 C 187.011719 174.785156 182.832031 175.347656 178.761719 176.691406 C 176.148438 177.574219 173.808594 178.929688 171.746094 180.765625 C 171.128906 181.300781 170.5625 181.878906 170.042969 182.507812 C 169.523438 183.136719 169.058594 183.804688 168.648438 184.507812 C 168.238281 185.214844 167.886719 185.945312 167.597656 186.710938 C 167.308594 187.472656 167.085938 188.253906 166.925781 189.050781 C 166.765625 189.851562 166.671875 190.660156 166.644531 191.472656 C 166.617188 192.289062 166.65625 193.101562 166.761719 193.90625 C 166.867188 194.714844 167.039062 195.511719 167.277344 196.289062 C 167.511719 197.070312 167.8125 197.828125 168.175781 198.558594 C 169.386719 201.011719 171.058594 203.097656 173.1875 204.824219 C 175.164062 206.316406 177.316406 207.488281 179.644531 208.339844 C 181.96875 209.195312 184.371094 209.691406 186.84375 209.835938 C 190.875 210.117188 194.90625 210.117188 198.9375 209.835938 C 204.128906 209.738281 209.035156 208.503906 213.660156 206.136719 C 215.683594 205.011719 217.519531 203.632812 219.167969 202.007812 C 220.816406 200.378906 222.21875 198.5625 223.371094 196.550781 C 225.257812 193.351562 226.71875 189.96875 227.753906 186.402344 C 229.636719 180.136719 231.074219 174.4375 232.265625 168.734375 C 235.023438 157.394531 236.464844 147.058594 237.464844 138.347656 Z M 209.960938 187.46875 C 209 189.152344 207.6875 190.492188 206.015625 191.476562 C 203.597656 192.636719 201.050781 193.265625 198.371094 193.355469 C 195.300781 193.671875 191.230469 193.859375 188.410156 193.859375 C 186.378906 194.042969 184.4375 193.707031 182.585938 192.855469 C 182.007812 192.605469 181.507812 192.253906 181.082031 191.789062 C 180.804688 191.613281 180.636719 191.363281 180.578125 191.039062 C 180.371094 190.558594 180.371094 190.078125 180.578125 189.597656 C 181.230469 188.667969 182.042969 187.917969 183.023438 187.34375 C 185.472656 185.855469 188.105469 184.832031 190.917969 184.273438 C 195.992188 183.121094 201.109375 182.890625 206.265625 183.582031 C 207.953125 183.789062 209.621094 184.082031 211.277344 184.460938 C 210.914062 185.496094 210.476562 186.496094 209.960938 187.46875 Z M 209.960938 187.46875 "/><g clip-rule="nonzero" clip-path="url(#cbb4c941c1)"><path style=" stroke:none;fill-rule:nonzero;fill:#f2d94e;fill-opacity:1;" d="M 76.765625 4.964844 C 76.875 6.234375 77.082031 7.488281 77.390625 8.722656 C 78.296875 12.277344 79.800781 15.554688 81.902344 18.558594 C 83.738281 20.945312 85.742188 23.183594 87.910156 25.269531 C 90.078125 27.359375 92.386719 29.277344 94.839844 31.023438 C 97.292969 32.769531 99.859375 34.324219 102.542969 35.691406 C 105.226562 37.054688 107.992188 38.214844 110.847656 39.171875 C 123.378906 43.746094 133.589844 46.378906 140.609375 49.886719 C 143.515625 51.378906 146.273438 53.113281 148.878906 55.085938 L 151.820312 57.339844 C 151.714844 56.199219 151.527344 55.070312 151.257812 53.957031 C 150.382812 50.667969 148.984375 47.621094 147.0625 44.8125 C 143.859375 40.308594 139.976562 36.507812 135.40625 33.410156 C 129.589844 29.40625 123.367188 26.191406 116.738281 23.761719 C 105.023438 19.4375 94.808594 16.679688 87.667969 12.984375 C 84.699219 11.484375 81.945312 9.667969 79.398438 7.535156 C 77.519531 5.96875 76.765625 4.964844 76.765625 4.964844 Z M 76.765625 4.964844 "/></g><path style=" stroke:none;fill-rule:nonzero;fill:#f2d94e;fill-opacity:1;" d="M 98.507812 105.207031 C 97.324219 107.597656 95.785156 109.726562 93.882812 111.597656 C 91.984375 113.464844 89.828125 114.96875 87.417969 116.109375 C 86.492188 116.6875 85.519531 117.167969 84.5 117.546875 C 83.476562 117.925781 82.425781 118.199219 81.347656 118.359375 C 80.269531 118.523438 79.1875 118.570312 78.097656 118.507812 C 77.007812 118.445312 75.9375 118.273438 74.886719 117.988281 C 74.070312 117.539062 73.335938 116.984375 72.6875 116.320312 C 72.035156 115.65625 71.496094 114.910156 71.066406 114.082031 C 70.636719 113.257812 70.335938 112.386719 70.164062 111.472656 C 69.996094 110.558594 69.960938 109.640625 70.0625 108.714844 C 70.027344 106.5625 70.359375 104.472656 71.058594 102.4375 C 71.757812 100.402344 72.78125 98.546875 74.132812 96.875 C 76.738281 94.140625 79.628906 91.757812 82.804688 89.722656 C 85.984375 87.691406 89.359375 86.0625 92.929688 84.84375 L 96.1875 83.59375 L 97.316406 87.226562 C 98.519531 90.070312 99.226562 93.035156 99.429688 96.117188 C 99.632812 99.199219 99.324219 102.226562 98.507812 105.207031 Z M 98.507812 105.207031 "/><g clip-rule="nonzero" clip-path="url(#9e09e4d078)"><path style=" stroke:none;fill-rule:nonzero;fill:#f2d94e;fill-opacity:1;" d="M 115.734375 96.5 C 115.171875 92.195312 114.105469 88.015625 112.539062 83.96875 C 109.847656 76.949219 107.339844 70.6875 104.769531 64.546875 C 99.632812 52.515625 94.808594 41.804688 90.613281 32.96875 C 82.65625 16.179688 76.765625 6.03125 76.765625 4.964844 C 76.765625 6.15625 78.269531 15.992188 82.152344 33.03125 C 84.222656 42.117188 87.039062 53.269531 90.800781 66.300781 C 92.242188 71.1875 93.746094 76.386719 95.4375 81.835938 L 92.554688 82.152344 C 89.207031 82.445312 85.910156 83.007812 82.65625 83.84375 C 77.9375 84.945312 73.59375 86.886719 69.625 89.667969 C 68.277344 90.609375 67.027344 91.660156 65.875 92.824219 C 64.71875 93.988281 63.679688 95.25 62.753906 96.605469 C 61.828125 97.957031 61.03125 99.382812 60.367188 100.882812 C 59.699219 102.378906 59.171875 103.925781 58.785156 105.519531 C 57.886719 109.40625 57.886719 113.289062 58.785156 117.171875 C 59.261719 119.496094 60.125 121.664062 61.375 123.675781 C 62.625 125.691406 64.183594 127.429688 66.050781 128.890625 C 68.003906 130.4375 70.15625 131.617188 72.507812 132.433594 C 74.859375 133.25 77.28125 133.65625 79.773438 133.652344 C 84.421875 133.679688 88.890625 132.804688 93.179688 131.019531 C 97.363281 129.273438 101.1875 126.933594 104.644531 124.003906 C 108.648438 120.667969 111.699219 116.617188 113.792969 111.847656 C 114.785156 109.417969 115.445312 106.902344 115.773438 104.300781 C 116.105469 101.699219 116.089844 99.097656 115.734375 96.5 Z M 98.507812 105.207031 C 97.324219 107.597656 95.785156 109.726562 93.882812 111.597656 C 91.984375 113.464844 89.828125 114.96875 87.417969 116.109375 C 86.492188 116.6875 85.519531 117.167969 84.5 117.546875 C 83.476562 117.925781 82.425781 118.199219 81.347656 118.359375 C 80.269531 118.523438 79.1875 118.570312 78.097656 118.507812 C 77.007812 118.445312 75.9375 118.273438 74.886719 117.988281 C 74.070312 117.539062 73.335938 116.984375 72.6875 116.320312 C 72.035156 115.65625 71.496094 114.910156 71.066406 114.082031 C 70.636719 113.257812 70.335938 112.386719 70.164062 111.472656 C 69.996094 110.558594 69.960938 109.640625 70.0625 108.714844 C 70.027344 106.5625 70.359375 104.472656 71.058594 102.4375 C 71.757812 100.402344 72.78125 98.546875 74.132812 96.875 C 76.738281 94.140625 79.628906 91.757812 82.804688 89.722656 C 85.984375 87.691406 89.359375 86.0625 92.929688 84.84375 L 96.1875 83.59375 L 97.316406 87.226562 C 98.519531 90.070312 99.226562 93.035156 99.429688 96.117188 C 99.632812 99.199219 99.324219 102.226562 98.507812 105.207031 Z M 98.507812 105.207031 "/></g></g></svg>