<svg xmlns="http://www.w3.org/2000/svg" xmlns:xlink="http://www.w3.org/1999/xlink" width="500" zoomAndPan="magnify" viewBox="0 0 375 374.999991" height="500" preserveAspectRatio="xMidYMid meet" version="1.2"><defs><clipPath id="81d0560f8f"><path d="M 2.976562 87.023438 L 371.710938 87.023438 L 371.710938 337.222656 L 2.976562 337.222656 Z M 2.976562 87.023438 "/></clipPath><clipPath id="e377ed0fb8"><path d="M 49 34.664062 L 155 34.664062 L 155 187 L 49 187 Z M 49 34.664062 "/></clipPath></defs><g id="dbe05b8b0f"><rect x="0" width="375" y="0" height="374.999991" style="fill:#ffffff;fill-opacity:1;stroke:none;"/><rect x="0" width="375" y="0" height="374.999991" style="fill:#ffffff;fill-opacity:1;stroke:none;"/><path style=" stroke:none;fill-rule:nonzero;fill:#f2d94e;fill-opacity:1;" d="M 244.683594 151.445312 L 245.441406 158.78125 C 247.867188 158.546875 250.378906 158.421875 252.910156 158.421875 C 255 158.421875 257.152344 158.503906 259.308594 158.667969 L 259.894531 151.320312 C 257.542969 151.140625 255.195312 151.050781 252.910156 151.050781 C 250.128906 151.050781 247.363281 151.183594 244.683594 151.445312 "/><path style=" stroke:none;fill-rule:nonzero;fill:#f2d94e;fill-opacity:1;" d="M 215.65625 160.574219 L 219.472656 166.933594 C 223.425781 164.671875 227.632812 162.839844 231.976562 161.484375 L 229.679688 154.464844 C 224.808594 155.984375 220.089844 158.039062 215.65625 160.574219 "/><path style=" stroke:none;fill-rule:nonzero;fill:#f2d94e;fill-opacity:1;" d="M 114.757812 261.210938 C 119.734375 260.226562 124.636719 258.835938 129.320312 257.085938 L 126.621094 250.203125 C 122.320312 251.808594 117.824219 253.082031 113.25 253.992188 L 114.757812 261.210938 "/><path style=" stroke:none;fill-rule:nonzero;fill:#f2d94e;fill-opacity:1;" d="M 193 180.28125 L 198.9375 184.835938 C 201.902344 181.152344 205.082031 177.804688 208.390625 174.894531 L 203.332031 169.421875 C 199.707031 172.613281 196.234375 176.269531 193 180.28125 "/><path style=" stroke:none;fill-rule:nonzero;fill:#f2d94e;fill-opacity:1;" d="M 85.351562 255.355469 L 84.683594 262.695312 C 88.050781 262.988281 91.429688 263.140625 94.714844 263.140625 C 96.398438 263.140625 98.089844 263.101562 99.746094 263.023438 L 99.386719 255.660156 C 97.851562 255.734375 96.277344 255.769531 94.714844 255.769531 C 91.652344 255.769531 88.5 255.628906 85.351562 255.355469 "/><path style=" stroke:none;fill-rule:nonzero;fill:#f2d94e;fill-opacity:1;" d="M 150.597656 236.503906 C 146.945312 239.425781 143.097656 242.054688 139.15625 244.308594 L 142.984375 250.667969 C 147.257812 248.214844 151.429688 245.371094 155.382812 242.207031 L 150.597656 236.503906 "/><path style=" stroke:none;fill-rule:nonzero;fill:#f2d94e;fill-opacity:1;" d="M 169.730469 216.457031 C 166.890625 220.261719 163.882812 223.847656 160.792969 227.105469 L 166.335938 232.113281 C 169.625 228.644531 172.820312 224.835938 175.835938 220.796875 L 169.730469 216.457031 "/><path style=" stroke:none;fill-rule:nonzero;fill:#f2d94e;fill-opacity:1;" d="M 55.390625 256.714844 C 60.203125 258.242188 65.0625 259.515625 69.839844 260.503906 L 71.40625 253.292969 C 66.886719 252.355469 62.285156 251.152344 57.726562 249.703125 L 55.390625 256.714844 "/><path style=" stroke:none;fill-rule:nonzero;fill:#f2d94e;fill-opacity:1;" d="M 299.960938 169.703125 C 304.15625 171.554688 308.457031 173.65625 312.742188 175.941406 L 316.363281 169.476562 C 311.914062 167.097656 307.441406 164.914062 303.074219 162.988281 L 299.960938 169.703125 "/><path style=" stroke:none;fill-rule:nonzero;fill:#f2d94e;fill-opacity:1;" d="M 273.160156 160.734375 C 277.566406 161.699219 282.140625 162.980469 286.757812 164.539062 L 289.226562 157.574219 C 284.34375 155.921875 279.492188 154.566406 274.808594 153.542969 L 273.160156 160.734375 "/><g clip-rule="nonzero" clip-path="url(#81d0560f8f)"><path style=" stroke:none;fill-rule:nonzero;fill:#f2d94e;fill-opacity:1;" d="M 277.226562 232.324219 L 273.1875 232.578125 L 270.214844 235.324219 L 219.96875 281.671875 L 173.289062 141.207031 L 222.957031 98.832031 L 292.792969 101.445312 L 329.550781 177.101562 C 329.410156 177.015625 329.265625 176.925781 329.125 176.835938 L 325.082031 183.058594 C 328.726562 185.316406 332.363281 187.714844 335.910156 190.1875 L 354.019531 227.457031 Z M 300.0625 90.300781 L 218.9375 87.265625 L 164.722656 133.515625 L 151.328125 131.15625 C 149.578125 134.566406 147.664062 138.09375 145.589844 141.730469 L 162.429688 144.699219 L 180.617188 199.425781 C 179.59375 201.285156 178.546875 203.109375 177.488281 204.871094 L 183.585938 208.367188 L 209.359375 285.917969 L 131.378906 282.355469 L 128.007812 282.199219 L 125.097656 283.90625 L 63.1875 320.125 L 41.683594 250.953125 L 44.460938 244.773438 C 42.414062 243.894531 40.582031 243.054688 38.992188 242.292969 L 16.441406 169.738281 L 58.625 142.496094 C 56.648438 139.054688 54.8125 135.710938 53.125 132.46875 L 2.976562 164.855469 L 56.554688 337.222656 L 130.859375 293.75 L 219.316406 297.796875 L 277.949219 243.710938 L 371.710938 237.769531 L 300.0625 90.300781 "/></g><g clip-rule="nonzero" clip-path="url(#e377ed0fb8)"><path style=" stroke:none;fill-rule:nonzero;fill:#f2d94e;fill-opacity:1;" d="M 73.328125 83.792969 C 73.328125 68.019531 86.117188 55.234375 101.890625 55.234375 C 117.660156 55.234375 130.449219 68.019531 130.449219 83.792969 C 130.449219 99.566406 117.660156 112.351562 101.890625 112.351562 C 86.117188 112.351562 73.328125 99.566406 73.328125 83.792969 Z M 154.296875 87.070312 C 154.296875 58.125 130.835938 34.660156 101.890625 34.660156 C 72.941406 34.660156 49.476562 58.125 49.476562 87.070312 C 49.476562 120.878906 101.890625 186.96875 101.890625 186.96875 C 101.890625 186.96875 154.296875 120.878906 154.296875 87.070312 "/></g></g></svg>