<svg xmlns="http://www.w3.org/2000/svg" xmlns:xlink="http://www.w3.org/1999/xlink" width="500" zoomAndPan="magnify" viewBox="0 0 375 374.999991" height="500" preserveAspectRatio="xMidYMid meet" version="1.2"><defs><clipPath id="da2cbb9b47"><path d="M 168 187 L 339.9375 187 L 339.9375 368.292969 L 168 368.292969 Z M 168 187 "/></clipPath></defs><g id="32556dd45e"><g clip-rule="nonzero" clip-path="url(#da2cbb9b47)"><path style=" stroke:none;fill-rule:nonzero;fill:#f2d94e;fill-opacity:1;" d="M 176.882812 219.769531 C 179.199219 221.269531 181.671875 222.664062 184.265625 223.605469 C 197.023438 228.296875 210.199219 228.839844 223.328125 225.882812 C 236.253906 222.957031 248.875 218.34375 261.847656 215.757812 C 263.59375 215.402344 261.816406 241.253906 262.742188 243.28125 C 263.4375 244.78125 264.84375 245.820312 266.3125 246.578125 C 275.734375 251.4375 287.007812 246.375 288.847656 235.898438 C 290.3125 227.523438 290.5 218.933594 289.417969 210.496094 C 288.707031 205.09375 326.917969 197.308594 335.769531 187.601562 C 335.816406 187.554688 335.953125 187.585938 336.15625 187.570312 C 336.109375 187.570312 340.589844 228.699219 339.863281 246.035156 C 339.289062 259.472656 338.117188 274.164062 333.652344 286.917969 C 329.976562 297.488281 327.800781 310.460938 320.277344 319.113281 C 314.886719 325.304688 236.175781 365.707031 201.65625 367.78125 C 197.796875 368.011719 177.160156 369.761719 176.914062 365.117188 C 176.203125 351.867188 175.476562 338.632812 174.75 325.398438 C 172.667969 287.351562 168.804688 210.261719 168.804688 209.800781 C 170.488281 214.023438 173.175781 217.367188 176.882812 219.769531 "/></g><path style=" stroke:none;fill-rule:nonzero;fill:#f2d94e;fill-opacity:1;" d="M 204.050781 54.589844 C 199.046875 55.871094 194.042969 57.203125 189.054688 58.503906 C 186.382812 59.199219 185.949219 59.679688 185.316406 57.109375 C 184.757812 54.835938 184.574219 39.992188 184.359375 35.175781 C 184.140625 30.347656 182.859375 26.445312 177.375 26.847656 C 174.070312 27.097656 170.765625 27.34375 167.507812 27.933594 C 164.203125 28.550781 161.902344 29.667969 160.925781 33.027344 C 159.042969 39.542969 159.566406 68.242188 156.585938 69.386719 C 148.878906 72.34375 132.722656 78.582031 132.324219 78.703125 C 132.261719 78.441406 133.496094 41.523438 139.953125 24.28125 C 143.210938 15.609375 150.132812 15.039062 158.070312 12.546875 C 163.984375 10.6875 170.054688 9.03125 176.234375 8.414062 C 185.394531 7.5 193.65625 9.15625 197.238281 17.019531 C 200.097656 23.320312 201.796875 30.085938 202.96875 36.878906 C 203.402344 39.386719 206.675781 53.90625 204.050781 54.589844 "/><path style=" stroke:none;fill-rule:nonzero;fill:#f2d94e;fill-opacity:1;" d="M 141.1875 110.871094 C 135.242188 106.769531 128.785156 104.136719 121.402344 104.492188 C 121.292969 104.492188 121.171875 104.355469 120.96875 104.230469 C 127.070312 97.621094 133.699219 91.832031 142.222656 88.644531 C 170.226562 78.179688 199.015625 64.757812 229.644531 67.296875 C 261.308594 69.914062 292.042969 87.375 308.230469 115.128906 C 316.355469 129.042969 322.734375 143.671875 327.984375 158.871094 C 329.992188 164.691406 325.683594 169.894531 321.25 173.269531 C 310.609375 181.316406 297.324219 184.398438 284.953125 188.65625 C 286.003906 188.28125 272.210938 163.917969 270.804688 161.859375 C 269.015625 159.257812 266.992188 156.597656 264.085938 155.34375 C 261.324219 154.167969 258.171875 154.460938 255.207031 154.988281 C 251.546875 155.652344 239.839844 158.671875 242.695312 164.320312 C 245.367188 169.597656 248.210938 174.800781 250.898438 180.0625 C 253.460938 185.0625 257.183594 190.867188 258.296875 196.394531 C 249.121094 200.25 238.679688 202.355469 228.996094 204.566406 C 219.21875 206.8125 209.949219 208.824219 199.894531 207.339844 C 186.429688 205.324219 176.960938 198.191406 174.179688 182.910156 C 171.769531 169.613281 168.621094 156.488281 164.03125 143.78125 C 162.039062 138.269531 159.9375 132.710938 157.097656 127.621094 C 153.265625 120.777344 147.644531 115.328125 141.1875 110.871094 "/><path style=" stroke:none;fill-rule:nonzero;fill:#f2d94e;fill-opacity:1;" d="M 99.75 175.0625 C 101.125 163.65625 103.207031 152.324219 106.34375 141.257812 C 108.429688 133.859375 110.792969 118.8125 121.914062 123.054688 C 124.074219 123.875 126.175781 125.035156 128.011719 126.425781 C 136.785156 133.191406 145.375 143.949219 146.6875 155.15625 C 148.355469 169.289062 159.96875 359.144531 157.589844 361.3125 C 157.28125 361.589844 156.910156 361.699219 156.433594 361.605469 C 143.089844 358.648438 121.929688 355.800781 115.195312 342.519531 C 113.03125 338.214844 111.332031 333.679688 110.160156 329.003906 C 109.539062 326.558594 109.03125 323.988281 107.59375 321.929688 C 105.601562 319.066406 102.359375 317.84375 99.410156 316.28125 C 95.070312 314.007812 95.160156 313.339844 95.285156 308.417969 C 95.53125 299.425781 95.5 210.171875 99.75 175.0625 "/><path style=" stroke:none;fill-rule:nonzero;fill:#f2d94e;fill-opacity:1;" d="M 44.035156 128.75 C 45.367188 114.460938 46.800781 99.757812 53.457031 87.046875 C 57.859375 78.644531 64.855469 71.152344 73.910156 68.347656 C 81.707031 65.917969 90.3125 67.203125 97.847656 70.363281 C 105.402344 73.519531 112.058594 78.441406 118.515625 83.472656 C 114.175781 88.253906 104.785156 98.582031 104.289062 98.6875 C 104.273438 98.703125 104.257812 98.703125 104.242188 98.703125 C 103.65625 98.8125 103.070312 98.503906 102.542969 98.207031 C 91.4375 91.816406 78.078125 89.894531 72.117188 103.875 C 66.109375 117.945312 59.203125 237.785156 61.226562 253.621094 C 62.742188 265.355469 67.265625 280.925781 80.503906 283.882812 C 80.132812 292.769531 79.761719 301.636719 79.390625 310.617188 C 79.40625 310.167969 68.378906 307.210938 67.5 306.902344 C 63.035156 305.320312 58.664062 303.371094 54.910156 300.429688 C 40.902344 289.472656 35.835938 269.269531 35.542969 252.304688 C 34.847656 211.039062 40.222656 169.753906 44.035156 128.75 "/><path style=" stroke:none;fill-rule:nonzero;fill:#f2d94e;fill-opacity:1;" d="M 237.769531 54.308594 C 234.679688 53.644531 231.574219 52.976562 228.46875 52.375 C 226.742188 52.035156 224.980469 51.800781 222.988281 51.492188 C 223.417969 45.144531 223.234375 38.921875 220.871094 32.902344 C 226.183594 35.503906 231.527344 37.933594 235.082031 42.761719 C 237.195312 45.625 239.144531 48.675781 239.914062 52.265625 C 240.332031 54.203125 239.714844 54.726562 237.769531 54.308594 "/></g></svg>