<svg xmlns="http://www.w3.org/2000/svg" xmlns:xlink="http://www.w3.org/1999/xlink" width="500" zoomAndPan="magnify" viewBox="0 0 375 374.999991" height="500" preserveAspectRatio="xMidYMid meet" version="1.2"><defs><clipPath id="c4a7656a96"><path d="M 11 11 L 363.976562 11 L 363.976562 363.976562 L 11 363.976562 Z M 11 11 "/></clipPath></defs><g id="db258cbf0e"><g clip-rule="nonzero" clip-path="url(#c4a7656a96)"><path style=" stroke:none;fill-rule:nonzero;fill:#f2d94e;fill-opacity:1;" d="M 349.507812 24.042969 C 347.542969 22.101562 345.410156 20.371094 343.105469 18.851562 C 340.800781 17.332031 338.375 16.050781 335.816406 15.007812 C 333.261719 13.964844 330.628906 13.179688 327.917969 12.652344 C 325.210938 12.128906 322.476562 11.871094 319.714844 11.882812 C 316.957031 11.867188 314.226562 12.121094 311.519531 12.644531 C 308.816406 13.167969 306.1875 13.953125 303.636719 14.996094 C 301.085938 16.039062 298.660156 17.320312 296.363281 18.84375 C 294.066406 20.367188 291.9375 22.101562 289.984375 24.042969 L 275.9375 37.722656 L 36.75 276.058594 C 36.476562 276.351562 36.253906 276.675781 36.082031 277.03125 C 35.867188 277.519531 35.722656 278.027344 35.65625 278.554688 L 11.335938 355.464844 C 11.171875 355.992188 11.078125 356.527344 11.058594 357.078125 C 11.039062 357.628906 11.09375 358.171875 11.222656 358.707031 C 11.351562 359.242188 11.550781 359.75 11.816406 360.234375 C 12.082031 360.714844 12.410156 361.152344 12.792969 361.546875 C 13.355469 362.101562 13.996094 362.53125 14.722656 362.835938 C 15.445312 363.140625 16.203125 363.296875 16.988281 363.308594 C 17.558594 363.390625 18.125 363.390625 18.691406 363.308594 L 96.03125 339.351562 C 96.394531 339.183594 96.738281 338.980469 97.0625 338.746094 C 97.402344 338.59375 97.707031 338.390625 97.976562 338.136719 L 267.121094 169.964844 C 266.859375 171.675781 266.914062 173.375 267.292969 175.066406 C 267.667969 176.753906 268.34375 178.316406 269.3125 179.753906 C 270.007812 180.710938 270.808594 181.570312 271.710938 182.335938 C 272.613281 183.097656 273.59375 183.746094 274.652344 184.273438 C 275.707031 184.804688 276.8125 185.199219 277.96875 185.464844 C 279.121094 185.726562 280.289062 185.851562 281.472656 185.832031 C 283.925781 185.863281 286.195312 185.238281 288.28125 183.949219 C 289.800781 183.035156 291.6875 180.96875 295.210938 172.457031 C 295.5 172.085938 295.742188 171.691406 295.941406 171.265625 C 296.136719 170.839844 296.28125 170.398438 296.378906 169.941406 C 296.472656 169.480469 296.511719 169.019531 296.5 168.550781 C 296.488281 168.082031 296.421875 167.621094 296.304688 167.167969 C 296.183594 166.714844 296.015625 166.28125 295.796875 165.867188 C 295.578125 165.453125 295.316406 165.070312 295.007812 164.71875 C 294.699219 164.363281 294.355469 164.050781 293.976562 163.777344 C 293.597656 163.503906 293.191406 163.277344 292.757812 163.097656 C 292.324219 162.917969 291.878906 162.789062 291.414062 162.710938 C 290.953125 162.636719 290.488281 162.613281 290.019531 162.644531 C 289.554688 162.675781 289.097656 162.757812 288.648438 162.894531 C 288.199219 163.03125 287.773438 163.21875 287.367188 163.453125 C 286.964844 163.6875 286.589844 163.96875 286.25 164.289062 C 285.910156 164.609375 285.609375 164.964844 285.351562 165.355469 C 285.09375 165.746094 284.882812 166.164062 284.722656 166.601562 C 284.558594 167.039062 284.449219 167.492188 284.390625 167.957031 C 283.550781 170.046875 282.578125 172.074219 281.472656 174.039062 C 280.566406 174.027344 279.777344 173.722656 279.101562 173.125 C 279.101562 173.125 278.734375 172.578125 279.101562 170.085938 C 280.742188 162.972656 298.980469 154.398438 313.574219 147.46875 C 329.441406 139.929688 344.398438 132.875 351.511719 123.816406 C 352.671875 122.496094 353.675781 121.066406 354.523438 119.527344 C 355.371094 117.988281 356.042969 116.375 356.542969 114.691406 C 357.039062 113.007812 357.351562 111.289062 357.480469 109.535156 C 357.605469 107.785156 357.542969 106.039062 357.289062 104.300781 C 356.695312 101.351562 355.667969 98.566406 354.203125 95.9375 C 352.742188 93.3125 350.910156 90.972656 348.714844 88.917969 L 351.511719 86.058594 C 352.503906 85.085938 353.441406 84.070312 354.332031 83.003906 C 355.222656 81.941406 356.054688 80.835938 356.835938 79.6875 C 357.617188 78.539062 358.335938 77.359375 359 76.140625 C 359.664062 74.921875 360.265625 73.671875 360.804688 72.394531 C 361.34375 71.117188 361.820312 69.816406 362.230469 68.492188 C 362.644531 67.167969 362.988281 65.824219 363.265625 64.464844 C 363.546875 63.109375 363.757812 61.738281 363.902344 60.359375 C 364.042969 58.980469 364.121094 57.597656 364.128906 56.207031 C 364.132812 54.820312 364.074219 53.4375 363.941406 52.058594 C 363.8125 50.675781 363.617188 49.304688 363.351562 47.941406 C 363.085938 46.582031 362.753906 45.234375 362.355469 43.90625 C 361.957031 42.578125 361.496094 41.273438 360.96875 39.988281 C 360.441406 38.707031 359.855469 37.453125 359.203125 36.226562 C 358.550781 35.003906 357.84375 33.8125 357.074219 32.65625 C 356.304688 31.503906 355.484375 30.386719 354.605469 29.316406 C 353.726562 28.242188 352.796875 27.214844 351.816406 26.230469 Z M 26.050781 348.414062 L 43.621094 291.320312 L 83.261719 331.085938 Z M 94.328125 325.613281 L 49.214844 280.253906 L 280.253906 50.246094 L 325.371094 95.605469 Z M 342.273438 116.398438 C 336.859375 123.269531 322.511719 130.078125 308.589844 136.644531 C 303.175781 139.199219 297.828125 141.691406 292.902344 144.304688 L 334.0625 103.265625 L 340.144531 97.1875 C 341.511719 98.339844 342.675781 99.675781 343.628906 101.191406 C 344.582031 102.707031 345.285156 104.328125 345.738281 106.0625 C 345.839844 106.996094 345.839844 107.933594 345.738281 108.871094 C 345.636719 109.804688 345.4375 110.71875 345.140625 111.609375 C 344.839844 112.503906 344.449219 113.351562 343.964844 114.160156 C 343.480469 114.96875 342.917969 115.714844 342.273438 116.398438 Z M 343.246094 77.546875 L 333.578125 87.335938 L 288.34375 41.980469 L 298.128906 32.25 C 299.535156 30.828125 301.0625 29.554688 302.714844 28.433594 C 304.371094 27.3125 306.117188 26.359375 307.960938 25.582031 C 309.800781 24.804688 311.699219 24.214844 313.660156 23.8125 C 315.617188 23.410156 317.59375 23.203125 319.59375 23.191406 C 321.605469 23.199219 323.59375 23.40625 325.566406 23.808594 C 327.535156 24.210938 329.445312 24.804688 331.300781 25.589844 C 333.152344 26.371094 334.910156 27.328125 336.570312 28.460938 C 338.234375 29.589844 339.769531 30.875 341.175781 32.3125 L 343.367188 34.5 C 344.074219 35.203125 344.742188 35.941406 345.375 36.710938 C 346.007812 37.480469 346.601562 38.28125 347.15625 39.109375 C 347.714844 39.9375 348.226562 40.792969 348.695312 41.671875 C 349.167969 42.550781 349.59375 43.453125 349.976562 44.371094 C 350.359375 45.292969 350.695312 46.230469 350.984375 47.183594 C 351.273438 48.140625 351.515625 49.105469 351.710938 50.082031 C 351.90625 51.0625 352.050781 52.046875 352.152344 53.039062 C 352.25 54.03125 352.296875 55.027344 352.296875 56.023438 C 352.296875 57.019531 352.25 58.015625 352.152344 59.007812 C 352.050781 60 351.90625 60.984375 351.710938 61.964844 C 351.515625 62.941406 351.273438 63.90625 350.984375 64.863281 C 350.695312 65.816406 350.359375 66.753906 349.976562 67.675781 C 349.59375 68.597656 349.167969 69.496094 348.695312 70.375 C 348.226562 71.253906 347.714844 72.109375 347.15625 72.9375 C 346.601562 73.765625 346.007812 74.566406 345.375 75.335938 C 344.742188 76.105469 344.074219 76.84375 343.367188 77.546875 Z M 343.246094 77.546875 "/></g></g></svg>